<svg width="30" height="29" viewBox="0 0 30 29" fill="none" xmlns="http://www.w3.org/2000/svg">
<path d="M19.242 18.742C18.1168 19.8668 16.591 20.4987 15 20.4987C13.409 20.4987 11.8832 19.8668 10.758 18.742M10.5 11.5H10.515M19.5 11.5H19.515M28.5 14.5C28.5 16.2728 28.1508 18.0283 27.4724 19.6662C26.7939 21.3041 25.7995 22.7923 24.5459 24.0459C23.2923 25.2995 21.8041 26.2939 20.1662 26.9724C18.5283 27.6508 16.7728 28 15 28C13.2272 28 11.4717 27.6508 9.83377 26.9724C8.19588 26.2939 6.70765 25.2995 5.45406 24.0459C4.20047 22.7923 3.20606 21.3041 2.52763 19.6662C1.84919 18.0283 1.5 16.2728 1.5 14.5C1.5 10.9196 2.92232 7.4858 5.45406 4.95406C7.9858 2.42232 11.4196 1 15 1C18.5804 1 22.0142 2.42232 24.5459 4.95406C27.0777 7.4858 28.5 10.9196 28.5 14.5Z" stroke="black" stroke-width="2" stroke-linecap="round" stroke-linejoin="round"/>
</svg>
