<svg width="36" height="27" viewBox="0 0 36 27" fill="none" xmlns="http://www.w3.org/2000/svg">
<path d="M23.0305 13.7374C23.0305 15.0716 22.5005 16.3511 21.5571 17.2944C20.6138 18.2378 19.3343 18.7678 18.0001 18.7678C16.666 18.7678 15.3865 18.2378 14.4431 17.2944C13.4997 16.3511 12.9697 15.0716 12.9697 13.7374C12.9697 12.4033 13.4997 11.1238 14.4431 10.1804C15.3865 9.23702 16.666 8.70703 18.0001 8.70703C19.3343 8.70703 20.6138 9.23702 21.5571 10.1804C22.5005 11.1238 23.0305 12.4033 23.0305 13.7374V13.7374Z" stroke="#6549F6" stroke-width="3" stroke-linecap="round" stroke-linejoin="round"/>
<path d="M2 13.7376C4.13624 6.93481 10.493 2 18 2C25.5087 2 31.8638 6.93481 34 13.7376C31.8638 20.5403 25.5087 25.4752 18 25.4752C10.493 25.4752 4.13624 20.5403 2 13.7376V13.7376Z" stroke="#6549F6" stroke-width="3" stroke-linecap="round" stroke-linejoin="round"/>
</svg>
