<svg width="21" height="11" viewBox="0 0 21 11" fill="none" xmlns="http://www.w3.org/2000/svg">
<path d="M7.89423 10.1418L7.93227 10.346H8.14H9.256H9.506V10.096V5.344V5.094H9.256H5.5H5.25V5.344V6.64V6.89H5.5H7.40379C7.36903 7.34774 7.19208 7.76762 6.88687 8.08111C6.55211 8.42495 6.04634 8.658 5.356 8.658C4.62729 8.658 4.03249 8.35892 3.61492 7.84572C3.19377 7.32811 2.942 6.57779 2.942 5.668C2.942 4.77795 3.14776 4.01779 3.54474 3.48667C3.93443 2.96532 4.52436 2.642 5.356 2.642C5.90489 2.642 6.3081 2.78543 6.59796 3.00634C6.8886 3.22784 7.08404 3.54155 7.19188 3.9136L7.24417 4.094H7.432H9.112H9.41482L9.35748 3.79666C9.18574 2.90615 8.75933 2.13916 8.07488 1.59615C7.39092 1.05353 6.46888 0.75 5.332 0.75C4.00089 0.75 2.95248 1.19141 2.18184 1.94864C1.24794 2.84485 0.75 4.1748 0.75 5.668C0.75 7.08514 1.17322 8.3145 1.99271 9.19801L2.17593 9.02807L1.99241 9.19769C2.77339 10.0427 3.88476 10.55 5.212 10.55C6.22064 10.55 7.12853 10.1972 7.76422 9.44385L7.89423 10.1418ZM10.4964 10.096V10.346H10.7464H12.4144H12.6644V10.096V1.168V0.918H12.4144H10.7464H10.4964V1.168V10.096ZM13.8597 10.096V10.346H14.1097H15.7657H16.0157V10.096V6.518H19.6657H19.9157V6.268V4.888V4.638H19.6657H16.0157V2.846H20.4457H20.6957V2.596V1.168V0.918H20.4457H14.1097H13.8597V1.168V10.096Z" fill="#D9D9D9" stroke="#D9D9D9" stroke-width="0.5"/>
</svg>
