<svg width="40" height="39" viewBox="0 0 40 39" fill="none" xmlns="http://www.w3.org/2000/svg">
<rect width="40" height="39" rx="19.5" fill="#F4EEFF"/>
<path d="M27.8712 13.4034C25.3102 11.4872 22.8568 11.5409 22.8568 11.5409L22.606 11.8273C25.6506 12.7408 27.0654 14.0839 27.0654 14.0839C22.7096 11.6857 17.1612 11.7028 12.6305 14.0839C12.6305 14.0839 14.099 12.6691 17.3227 11.7556L17.1436 11.5407C17.1436 11.5407 14.708 11.487 12.1291 13.4032C12.1291 13.4032 9.55029 18.0417 9.55029 23.7546C9.55029 23.7546 11.0547 26.3335 15.0127 26.4589C15.0127 26.4589 15.6753 25.6708 16.2126 24.9904C13.938 24.3099 13.0784 22.8951 13.0784 22.8951C14.5073 23.7892 15.9523 24.3489 17.7528 24.7039C20.6823 25.307 24.3262 24.687 27.0476 22.8951C27.0476 22.8951 26.1522 24.3458 23.8061 25.0084C24.3433 25.6711 24.9881 26.4411 24.9881 26.4411C28.9457 26.3159 30.4501 23.737 30.4501 23.7549C30.4501 18.0419 27.8712 13.4034 27.8712 13.4034ZM16.66 22.0895C15.6571 22.0895 14.8334 21.2119 14.8334 20.1194C14.9066 17.5031 18.4319 17.5113 18.4869 20.1194C18.4867 21.2119 17.6808 22.0895 16.66 22.0895ZM23.1969 22.0895C22.1939 22.0895 21.3702 21.2119 21.3702 20.1194C21.4508 17.5082 24.932 17.5071 25.0238 20.1194C25.0236 21.2119 24.2177 22.0895 23.1969 22.0895Z" fill="#6549F6"/>
</svg>
