<svg width="40" height="39" viewBox="0 0 40 39" fill="none" xmlns="http://www.w3.org/2000/svg">
<rect width="40" height="39" rx="19.5" fill="#F4EEFF"/>
<path d="M20.4 14.8C19.7635 14.8 19.153 14.5471 18.7029 14.0971C18.2529 13.647 18 13.0365 18 12.4C18 11.7635 18.2529 11.153 18.7029 10.7029C19.153 10.2529 19.7635 10 20.4 10C21.0365 10 21.647 10.2529 22.0971 10.7029C22.5471 11.153 22.8 11.7635 22.8 12.4C22.8 13.0365 22.5471 13.647 22.0971 14.0971C21.647 14.5471 21.0365 14.8 20.4 14.8ZM20.4 22C19.7635 22 19.153 21.7471 18.7029 21.2971C18.2529 20.847 18 20.2365 18 19.6C18 18.9635 18.2529 18.353 18.7029 17.9029C19.153 17.4529 19.7635 17.2 20.4 17.2C21.0365 17.2 21.647 17.4529 22.0971 17.9029C22.5471 18.353 22.8 18.9635 22.8 19.6C22.8 20.2365 22.5471 20.847 22.0971 21.2971C21.647 21.7471 21.0365 22 20.4 22ZM20.4 29.2C19.7635 29.2 19.153 28.9471 18.7029 28.4971C18.2529 28.047 18 27.4365 18 26.8C18 26.1635 18.2529 25.553 18.7029 25.1029C19.153 24.6529 19.7635 24.4 20.4 24.4C21.0365 24.4 21.647 24.6529 22.0971 25.1029C22.5471 25.553 22.8 26.1635 22.8 26.8C22.8 27.4365 22.5471 28.047 22.0971 28.4971C21.647 28.9471 21.0365 29.2 20.4 29.2Z" fill="#6549F6"/>
</svg>
