<svg width="40" height="39" viewBox="0 0 40 39" fill="none" xmlns="http://www.w3.org/2000/svg">
<rect width="40" height="39" rx="19.5" fill="#F4EEFF"/>
<path d="M11 15L18.89 20.26C19.2187 20.4793 19.6049 20.5963 20 20.5963C20.3951 20.5963 20.7813 20.4793 21.11 20.26L29 15M13 26H27C27.5304 26 28.0391 25.7893 28.4142 25.4142C28.7893 25.0391 29 24.5304 29 24V14C29 13.4696 28.7893 12.9609 28.4142 12.5858C28.0391 12.2107 27.5304 12 27 12H13C12.4696 12 11.9609 12.2107 11.5858 12.5858C11.2107 12.9609 11 13.4696 11 14V24C11 24.5304 11.2107 25.0391 11.5858 25.4142C11.9609 25.7893 12.4696 26 13 26Z" stroke="#6549F6" stroke-width="2" stroke-linecap="round" stroke-linejoin="round"/>
</svg>
