<svg width="24" height="23" viewBox="0 0 24 23" fill="none" xmlns="http://www.w3.org/2000/svg">
<path d="M0 11.5C0 5.14873 5.14873 0 11.5 0H12.42C18.7713 0 23.92 5.14873 23.92 11.5V11.5C23.92 17.8513 18.7713 23 12.42 23H11.5C5.14873 23 0 17.8513 0 11.5V11.5Z" fill="#F4EEFF"/>
<path d="M15.25 11.2692C15.25 10.9326 15.3949 10.6098 15.6527 10.3717C15.9106 10.1337 16.2603 10 16.625 10C16.9897 10 17.3394 10.1337 17.5973 10.3717C17.8551 10.6098 18 10.9326 18 11.2692C18 11.6059 17.8551 11.9287 17.5973 12.1667C17.3394 12.4047 16.9897 12.5385 16.625 12.5385C16.2603 12.5385 15.9106 12.4047 15.6527 12.1667C15.3949 11.9287 15.25 11.6059 15.25 11.2692ZM11.125 11.2692C11.125 10.9326 11.2699 10.6098 11.5277 10.3717C11.7856 10.1337 12.1353 10 12.5 10C12.8647 10 13.2144 10.1337 13.4723 10.3717C13.7301 10.6098 13.875 10.9326 13.875 11.2692C13.875 11.6059 13.7301 11.9287 13.4723 12.1667C13.2144 12.4047 12.8647 12.5385 12.5 12.5385C12.1353 12.5385 11.7856 12.4047 11.5277 12.1667C11.2699 11.9287 11.125 11.6059 11.125 11.2692ZM7 11.2692C7 10.9326 7.14487 10.6098 7.40273 10.3717C7.66059 10.1337 8.01033 10 8.375 10C8.73967 10 9.08941 10.1337 9.34727 10.3717C9.60513 10.6098 9.75 10.9326 9.75 11.2692C9.75 11.6059 9.60513 11.9287 9.34727 12.1667C9.08941 12.4047 8.73967 12.5385 8.375 12.5385C8.01033 12.5385 7.66059 12.4047 7.40273 12.1667C7.14487 11.9287 7 11.6059 7 11.2692Z" fill="#6549F6"/>
</svg>
