<svg width="48" height="47" viewBox="0 0 48 47" fill="none" xmlns="http://www.w3.org/2000/svg">
<g filter="url(#filter0_d_591_3448)">
<rect x="4" width="40" height="39" rx="19.5" fill="#F4EEFF"/>
<path d="M34 14.8002C33.2483 15.1263 32.4534 15.3419 31.64 15.4402C32.4982 14.9275 33.1413 14.121 33.45 13.1702C32.6436 13.6503 31.7608 13.9885 30.84 14.1702C30.2245 13.5028 29.405 13.0585 28.5098 12.9071C27.6147 12.7556 26.6945 12.9056 25.8938 13.3334C25.093 13.7612 24.4569 14.4427 24.0852 15.271C23.7135 16.0994 23.6273 17.0276 23.84 17.9102C22.2094 17.8277 20.6144 17.4032 19.1587 16.6641C17.7029 15.925 16.4188 14.8879 15.39 13.6202C15.0291 14.2504 14.8395 14.964 14.84 15.6902C14.8387 16.3646 15.0042 17.0288 15.3218 17.6238C15.6393 18.2187 16.099 18.7259 16.66 19.1002C16.008 19.0825 15.3699 18.9075 14.8 18.5902V18.6402C14.8049 19.5851 15.136 20.4993 15.7373 21.2282C16.3386 21.957 17.1733 22.4559 18.1 22.6402C17.7433 22.7488 17.3729 22.806 17 22.8102C16.7419 22.8072 16.4844 22.7838 16.23 22.7402C16.4939 23.553 17.0046 24.2634 17.6911 24.7724C18.3775 25.2814 19.2056 25.5638 20.06 25.5802C18.6172 26.7155 16.8359 27.3351 15 27.3402C14.6657 27.3413 14.3317 27.3213 14 27.2802C15.8744 28.4905 18.0588 29.1329 20.29 29.1302C21.8297 29.1462 23.3571 28.8552 24.7831 28.2743C26.2091 27.6934 27.505 26.8341 28.5952 25.7467C29.6854 24.6593 30.548 23.3656 31.1326 21.9411C31.7172 20.5166 32.012 18.9899 32 17.4502C32 17.2802 32 17.1002 32 16.9202C32.7847 16.335 33.4615 15.6176 34 14.8002V14.8002Z" fill="#6549F6"/>
</g>
<defs>
<filter id="filter0_d_591_3448" x="0" y="0" width="48" height="47" filterUnits="userSpaceOnUse" color-interpolation-filters="sRGB">
<feFlood flood-opacity="0" result="BackgroundImageFix"/>
<feColorMatrix in="SourceAlpha" type="matrix" values="0 0 0 0 0 0 0 0 0 0 0 0 0 0 0 0 0 0 127 0" result="hardAlpha"/>
<feOffset dy="4"/>
<feGaussianBlur stdDeviation="2"/>
<feComposite in2="hardAlpha" operator="out"/>
<feColorMatrix type="matrix" values="0 0 0 0 0 0 0 0 0 0 0 0 0 0 0 0 0 0 0.25 0"/>
<feBlend mode="normal" in2="BackgroundImageFix" result="effect1_dropShadow_591_3448"/>
<feBlend mode="normal" in="SourceGraphic" in2="effect1_dropShadow_591_3448" result="shape"/>
</filter>
</defs>
</svg>
