<svg width="40" height="39" viewBox="0 0 40 39" fill="none" xmlns="http://www.w3.org/2000/svg">
<rect width="40" height="39" rx="19.5" fill="#F4EEFF"/>
<path d="M25.6055 10.7617H14.3945C12.3125 10.7617 10.625 12.4492 10.625 14.5312V25.4688C10.625 27.5508 12.3125 29.2383 14.3945 29.2383H25.6055C27.6875 29.2383 29.375 27.5508 29.375 25.4688V14.5312C29.375 12.4492 27.6875 10.7617 25.6055 10.7617ZM20 24.4141C17.5625 24.4141 15.5859 22.4375 15.5859 20C15.5859 17.5625 17.5625 15.5859 20 15.5859C22.4375 15.5859 24.4141 17.5625 24.4141 20C24.4141 22.4375 22.4375 24.4141 20 24.4141ZM25.6914 15.4727C25.1719 15.4727 24.75 15.0508 24.75 14.5312C24.75 14.0117 25.1719 13.5898 25.6914 13.5898C26.2109 13.5898 26.6328 14.0117 26.6328 14.5312C26.6328 15.0508 26.2109 15.4727 25.6914 15.4727Z" fill="#6549F6"/>
</svg>
