<svg width="40" height="39" viewBox="0 0 40 39" fill="none" xmlns="http://www.w3.org/2000/svg">
<rect width="40" height="39" rx="19.5" fill="#F4EEFF"/>
<path d="M30 14.8002C29.2483 15.1263 28.4534 15.3419 27.64 15.4402C28.4982 14.9275 29.1413 14.121 29.45 13.1702C28.6436 13.6503 27.7608 13.9885 26.84 14.1702C26.2245 13.5028 25.405 13.0585 24.5098 12.9071C23.6147 12.7556 22.6945 12.9056 21.8938 13.3334C21.093 13.7612 20.4569 14.4427 20.0852 15.271C19.7135 16.0994 19.6273 17.0276 19.84 17.9102C18.2094 17.8277 16.6144 17.4032 15.1587 16.6641C13.7029 15.925 12.4188 14.8879 11.39 13.6202C11.0291 14.2504 10.8395 14.964 10.84 15.6902C10.8387 16.3646 11.0042 17.0288 11.3218 17.6238C11.6393 18.2187 12.099 18.7259 12.66 19.1002C12.008 19.0825 11.3699 18.9075 10.8 18.5902V18.6402C10.8049 19.5851 11.136 20.4993 11.7373 21.2282C12.3386 21.957 13.1733 22.4559 14.1 22.6402C13.7433 22.7488 13.3729 22.806 13 22.8102C12.7419 22.8072 12.4844 22.7838 12.23 22.7402C12.4939 23.553 13.0046 24.2634 13.6911 24.7724C14.3775 25.2814 15.2056 25.5638 16.06 25.5802C14.6172 26.7155 12.8359 27.3351 11 27.3402C10.6657 27.3413 10.3317 27.3213 10 27.2802C11.8744 28.4905 14.0588 29.1329 16.29 29.1302C17.8297 29.1462 19.3571 28.8552 20.7831 28.2743C22.2091 27.6934 23.505 26.8341 24.5952 25.7467C25.6854 24.6593 26.548 23.3656 27.1326 21.9411C27.7172 20.5166 28.012 18.9899 28 17.4502C28 17.2802 28 17.1002 28 16.9202C28.7847 16.335 29.4615 15.6176 30 14.8002V14.8002Z" fill="#6549F6"/>
</svg>
