<svg width="31" height="31" viewBox="0 0 31 31" fill="none" xmlns="http://www.w3.org/2000/svg">
<path d="M1 2.625C1 2.19402 1.1712 1.7807 1.47595 1.47595C1.7807 1.1712 2.19402 1 2.625 1H4.25C4.68098 1 5.0943 1.1712 5.39905 1.47595C5.70379 1.7807 5.875 2.19402 5.875 2.625V4.25C5.875 4.68098 5.70379 5.0943 5.39905 5.39905C5.0943 5.70379 4.68098 5.875 4.25 5.875H2.625C2.19402 5.875 1.7807 5.70379 1.47595 5.39905C1.1712 5.0943 1 4.68098 1 4.25V2.625ZM9.125 2.625C9.125 2.19402 9.29621 1.7807 9.60095 1.47595C9.9057 1.1712 10.319 1 10.75 1H12.375C12.806 1 13.2193 1.1712 13.524 1.47595C13.8288 1.7807 14 2.19402 14 2.625V4.25C14 4.68098 13.8288 5.0943 13.524 5.39905C13.2193 5.70379 12.806 5.875 12.375 5.875H10.75C10.319 5.875 9.9057 5.70379 9.60095 5.39905C9.29621 5.0943 9.125 4.68098 9.125 4.25V2.625ZM1 10.75C1 10.319 1.1712 9.9057 1.47595 9.60095C1.7807 9.29621 2.19402 9.125 2.625 9.125H4.25C4.68098 9.125 5.0943 9.29621 5.39905 9.60095C5.70379 9.9057 5.875 10.319 5.875 10.75V12.375C5.875 12.806 5.70379 13.2193 5.39905 13.524C5.0943 13.8288 4.68098 14 4.25 14H2.625C2.19402 14 1.7807 13.8288 1.47595 13.524C1.1712 13.2193 1 12.806 1 12.375V10.75ZM9.125 10.75C9.125 10.319 9.29621 9.9057 9.60095 9.60095C9.9057 9.29621 10.319 9.125 10.75 9.125H12.375C12.806 9.125 13.2193 9.29621 13.524 9.60095C13.8288 9.9057 14 10.319 14 10.75V12.375C14 12.806 13.8288 13.2193 13.524 13.524C13.2193 13.8288 12.806 14 12.375 14H10.75C10.319 14 9.9057 13.8288 9.60095 13.524C9.29621 13.2193 9.125 12.806 9.125 12.375V10.75Z" stroke="#6549F6" stroke-linecap="round" stroke-linejoin="round"/>
<path d="M1 18.875C1 18.444 1.1712 18.0307 1.47595 17.726C1.7807 17.4212 2.19402 17.25 2.625 17.25H4.25C4.68098 17.25 5.0943 17.4212 5.39905 17.726C5.70379 18.0307 5.875 18.444 5.875 18.875V20.5C5.875 20.931 5.70379 21.3443 5.39905 21.649C5.0943 21.9538 4.68098 22.125 4.25 22.125H2.625C2.19402 22.125 1.7807 21.9538 1.47595 21.649C1.1712 21.3443 1 20.931 1 20.5V18.875ZM9.125 18.875C9.125 18.444 9.29621 18.0307 9.60095 17.726C9.9057 17.4212 10.319 17.25 10.75 17.25H12.375C12.806 17.25 13.2193 17.4212 13.524 17.726C13.8288 18.0307 14 18.444 14 18.875V20.5C14 20.931 13.8288 21.3443 13.524 21.649C13.2193 21.9538 12.806 22.125 12.375 22.125H10.75C10.319 22.125 9.9057 21.9538 9.60095 21.649C9.29621 21.3443 9.125 20.931 9.125 20.5V18.875ZM1 27C1 26.569 1.1712 26.1557 1.47595 25.851C1.7807 25.5462 2.19402 25.375 2.625 25.375H4.25C4.68098 25.375 5.0943 25.5462 5.39905 25.851C5.70379 26.1557 5.875 26.569 5.875 27V28.625C5.875 29.056 5.70379 29.4693 5.39905 29.774C5.0943 30.0788 4.68098 30.25 4.25 30.25H2.625C2.19402 30.25 1.7807 30.0788 1.47595 29.774C1.1712 29.4693 1 29.056 1 28.625V27ZM9.125 27C9.125 26.569 9.29621 26.1557 9.60095 25.851C9.9057 25.5462 10.319 25.375 10.75 25.375H12.375C12.806 25.375 13.2193 25.5462 13.524 25.851C13.8288 26.1557 14 26.569 14 27V28.625C14 29.056 13.8288 29.4693 13.524 29.774C13.2193 30.0788 12.806 30.25 12.375 30.25H10.75C10.319 30.25 9.9057 30.0788 9.60095 29.774C9.29621 29.4693 9.125 29.056 9.125 28.625V27Z" stroke="#6549F6" stroke-linecap="round" stroke-linejoin="round"/>
<path d="M17.25 2.625C17.25 2.19402 17.4212 1.7807 17.726 1.47595C18.0307 1.1712 18.444 1 18.875 1H20.5C20.931 1 21.3443 1.1712 21.649 1.47595C21.9538 1.7807 22.125 2.19402 22.125 2.625V4.25C22.125 4.68098 21.9538 5.0943 21.649 5.39905C21.3443 5.70379 20.931 5.875 20.5 5.875H18.875C18.444 5.875 18.0307 5.70379 17.726 5.39905C17.4212 5.0943 17.25 4.68098 17.25 4.25V2.625ZM25.375 2.625C25.375 2.19402 25.5462 1.7807 25.851 1.47595C26.1557 1.1712 26.569 1 27 1H28.625C29.056 1 29.4693 1.1712 29.774 1.47595C30.0788 1.7807 30.25 2.19402 30.25 2.625V4.25C30.25 4.68098 30.0788 5.0943 29.774 5.39905C29.4693 5.70379 29.056 5.875 28.625 5.875H27C26.569 5.875 26.1557 5.70379 25.851 5.39905C25.5462 5.0943 25.375 4.68098 25.375 4.25V2.625ZM17.25 10.75C17.25 10.319 17.4212 9.9057 17.726 9.60095C18.0307 9.29621 18.444 9.125 18.875 9.125H20.5C20.931 9.125 21.3443 9.29621 21.649 9.60095C21.9538 9.9057 22.125 10.319 22.125 10.75V12.375C22.125 12.806 21.9538 13.2193 21.649 13.524C21.3443 13.8288 20.931 14 20.5 14H18.875C18.444 14 18.0307 13.8288 17.726 13.524C17.4212 13.2193 17.25 12.806 17.25 12.375V10.75ZM25.375 10.75C25.375 10.319 25.5462 9.9057 25.851 9.60095C26.1557 9.29621 26.569 9.125 27 9.125H28.625C29.056 9.125 29.4693 9.29621 29.774 9.60095C30.0788 9.9057 30.25 10.319 30.25 10.75V12.375C30.25 12.806 30.0788 13.2193 29.774 13.524C29.4693 13.8288 29.056 14 28.625 14H27C26.569 14 26.1557 13.8288 25.851 13.524C25.5462 13.2193 25.375 12.806 25.375 12.375V10.75Z" stroke="#6549F6" stroke-linecap="round" stroke-linejoin="round"/>
<path d="M17.25 18.875C17.25 18.444 17.4212 18.0307 17.726 17.726C18.0307 17.4212 18.444 17.25 18.875 17.25H20.5C20.931 17.25 21.3443 17.4212 21.649 17.726C21.9538 18.0307 22.125 18.444 22.125 18.875V20.5C22.125 20.931 21.9538 21.3443 21.649 21.649C21.3443 21.9538 20.931 22.125 20.5 22.125H18.875C18.444 22.125 18.0307 21.9538 17.726 21.649C17.4212 21.3443 17.25 20.931 17.25 20.5V18.875ZM25.375 18.875C25.375 18.444 25.5462 18.0307 25.851 17.726C26.1557 17.4212 26.569 17.25 27 17.25H28.625C29.056 17.25 29.4693 17.4212 29.774 17.726C30.0788 18.0307 30.25 18.444 30.25 18.875V20.5C30.25 20.931 30.0788 21.3443 29.774 21.649C29.4693 21.9538 29.056 22.125 28.625 22.125H27C26.569 22.125 26.1557 21.9538 25.851 21.649C25.5462 21.3443 25.375 20.931 25.375 20.5V18.875ZM17.25 27C17.25 26.569 17.4212 26.1557 17.726 25.851C18.0307 25.5462 18.444 25.375 18.875 25.375H20.5C20.931 25.375 21.3443 25.5462 21.649 25.851C21.9538 26.1557 22.125 26.569 22.125 27V28.625C22.125 29.056 21.9538 29.4693 21.649 29.774C21.3443 30.0788 20.931 30.25 20.5 30.25H18.875C18.444 30.25 18.0307 30.0788 17.726 29.774C17.4212 29.4693 17.25 29.056 17.25 28.625V27ZM25.375 27C25.375 26.569 25.5462 26.1557 25.851 25.851C26.1557 25.5462 26.569 25.375 27 25.375H28.625C29.056 25.375 29.4693 25.5462 29.774 25.851C30.0788 26.1557 30.25 26.569 30.25 27V28.625C30.25 29.056 30.0788 29.4693 29.774 29.774C29.4693 30.0788 29.056 30.25 28.625 30.25H27C26.569 30.25 26.1557 30.0788 25.851 29.774C25.5462 29.4693 25.375 29.056 25.375 28.625V27Z" stroke="#6549F6" stroke-linecap="round" stroke-linejoin="round"/>
</svg>
