<svg width="22" height="22" viewBox="0 0 22 22" fill="none" xmlns="http://www.w3.org/2000/svg">
<path d="M11 0.5C16.799 0.5 21.5 5.20101 21.5 11C21.5 16.799 16.799 21.5 11 21.5C5.20101 21.5 0.5 16.799 0.5 11C0.5 5.20101 5.20101 0.5 11 0.5ZM11 2.25C6.16751 2.25 2.25 6.16751 2.25 11C2.25 15.8324 6.16751 19.75 11 19.75C15.8324 19.75 19.75 15.8324 19.75 11C19.75 6.16751 15.8324 2.25 11 2.25ZM14.2612 13.9164C14.5835 13.5564 15.1367 13.5257 15.4968 13.848C15.8568 14.1703 15.8874 14.7235 15.5652 15.0836C14.4449 16.3352 12.8141 17.125 11 17.125C9.1859 17.125 7.55509 16.3352 6.43481 15.0836C6.11253 14.7235 6.14317 14.1703 6.50325 13.848C6.86335 13.5257 7.41651 13.5564 7.7388 13.9164C8.54114 14.8129 9.70435 15.375 11 15.375C12.2956 15.375 13.4588 14.8129 14.2612 13.9164ZM7.9375 7.9375C8.66237 7.9375 9.25 8.52513 9.25 9.25C9.25 9.97487 8.66237 10.5625 7.9375 10.5625C7.21263 10.5625 6.625 9.97487 6.625 9.25C6.625 8.52513 7.21263 7.9375 7.9375 7.9375ZM14.0625 7.9375C14.7873 7.9375 15.375 8.52513 15.375 9.25C15.375 9.97487 14.7873 10.5625 14.0625 10.5625C13.3376 10.5625 12.75 9.97487 12.75 9.25C12.75 8.52513 13.3376 7.9375 14.0625 7.9375Z" fill="#D9D9D9"/>
</svg>
