<svg width="36" height="36" viewBox="0 0 36 36" fill="none" xmlns="http://www.w3.org/2000/svg">
<path d="M10.8976 26.8867C8.67996 26.8882 6.54181 26.0609 4.90266 24.5672C3.26352 23.0735 2.2417 21.0212 2.03772 18.813C1.83373 16.6047 2.46229 14.3999 3.80006 12.6313C5.13784 10.8626 7.08827 9.6576 9.26866 9.25281C9.65164 7.21426 10.735 5.37364 12.3313 4.04925C13.9277 2.72487 15.9367 2 18.0109 2C20.0851 2 22.0941 2.72487 23.6905 4.04925C25.2869 5.37364 26.3702 7.21426 26.7532 9.25281C28.9263 9.66583 30.8675 10.8737 32.1981 12.6407C33.5287 14.4078 34.1532 16.6072 33.9498 18.8098C33.7463 21.0124 32.7294 23.0602 31.0977 24.5536C29.4659 26.0469 27.3362 26.8787 25.1242 26.8867M12.6759 17.9951L18.0109 12.6601M18.0109 12.6601L23.3459 17.9951M18.0109 12.6601V34" stroke="#6549F6" stroke-width="3" stroke-linecap="round" stroke-linejoin="round"/>
</svg>
