<svg width="49" height="49" viewBox="0 0 49 49" fill="none" xmlns="http://www.w3.org/2000/svg">
<path d="M42.826 24.808C42.3619 24.808 41.9168 24.6236 41.5886 24.2954C41.2604 23.9672 41.076 23.5221 41.076 23.058V18.018C41.1417 17.0263 40.8142 16.0486 40.1644 15.2966C39.5146 14.5446 38.5948 14.0788 37.604 14H7.32202C6.85789 14 6.41277 13.8156 6.08458 13.4874C5.7564 13.1592 5.57202 12.7141 5.57202 12.25C5.57202 11.7859 5.7564 11.3408 6.08458 11.0126C6.41277 10.6844 6.85789 10.5 7.32202 10.5H37.604C39.5265 10.5694 41.343 11.3983 42.6552 12.805C43.9675 14.2117 44.6683 16.0813 44.604 18.004V23.044C44.6059 23.2774 44.5611 23.5088 44.4723 23.7245C44.3834 23.9403 44.2523 24.1362 44.0866 24.3005C43.9209 24.4649 43.7241 24.5945 43.5076 24.6816C43.2911 24.7688 43.0594 24.8117 42.826 24.808Z" fill="#7B61FF"/>
<path d="M37.6041 47.152H7.32205C5.39957 47.0826 3.58305 46.2537 2.27083 44.847C0.958609 43.4403 0.25779 41.5706 0.322053 39.648V8.06396C0.322053 7.59984 0.506427 7.15472 0.834616 6.82653C1.1628 6.49834 1.60792 6.31396 2.07205 6.31396C2.53618 6.31396 2.9813 6.49834 3.30949 6.82653C3.63768 7.15472 3.82205 7.59984 3.82205 8.06396V39.648C3.75648 40.6382 4.0844 41.6143 4.73455 42.3641C5.3847 43.1138 6.30452 43.5767 7.29405 43.652H37.6041C38.5936 43.5767 39.5134 43.1138 40.1636 42.3641C40.8137 41.6143 41.1416 40.6382 41.0761 39.648V36.092C41.0761 35.6278 41.2604 35.1827 41.5886 34.8545C41.9168 34.5263 42.3619 34.342 42.8261 34.342C43.2902 34.342 43.7353 34.5263 44.0635 34.8545C44.3917 35.1827 44.5761 35.6278 44.5761 36.092V39.648C44.6404 41.566 43.9434 43.4315 42.6372 44.8374C41.331 46.2433 39.5216 47.0754 37.6041 47.152Z" fill="#7B61FF"/>
<path d="M36.89 14.0002C36.4307 14.0002 35.9897 13.8197 35.6623 13.4975C35.3349 13.1754 35.1473 12.7374 35.14 12.2782V8.40017C35.1071 7.56953 34.7473 6.78555 34.1389 6.2191C33.5305 5.65265 32.7228 5.34966 31.892 5.37617H6.69198C5.97757 5.34965 5.28177 5.60733 4.75696 6.09277C4.23215 6.57822 3.92112 7.25186 3.89198 7.96617C3.92112 8.68047 4.23215 9.35412 4.75696 9.83956C5.28177 10.325 5.97757 10.5827 6.69198 10.5562H22.092C22.5561 10.5562 23.0012 10.7405 23.3294 11.0687C23.6576 11.3969 23.842 11.842 23.842 12.3062C23.842 12.7703 23.6576 13.2154 23.3294 13.5436C23.0012 13.8718 22.5561 14.0562 22.092 14.0562H6.64998C5.83433 14.0691 5.02414 13.9211 4.2658 13.6204C3.50747 13.3198 2.81589 12.8725 2.23068 12.3042C1.64547 11.7359 1.17812 11.0577 0.855394 10.3085C0.532673 9.55935 0.360921 8.75384 0.349976 7.93817C0.379432 6.29568 1.05933 4.73196 2.24045 3.59021C3.42157 2.44846 5.00743 1.82195 6.64998 1.84817H31.85C32.7268 1.82961 33.5986 1.98468 34.4153 2.30443C35.2319 2.62419 35.9772 3.10232 36.6083 3.7113C37.2394 4.32028 37.7438 5.04808 38.0925 5.8528C38.4412 6.65751 38.6272 7.52325 38.64 8.40017V12.2782C38.6326 12.7374 38.445 13.1754 38.1176 13.4975C37.7902 13.8197 37.3493 14.0002 36.89 14.0002ZM43.96 37.8002H34.258C32.3629 37.8377 30.5304 37.1216 29.1628 35.8092C27.7952 34.4967 27.0044 32.6952 26.964 30.8002V28.2662C27.0044 26.3711 27.7952 24.5696 29.1628 23.2572C30.5304 21.9447 32.3629 21.2286 34.258 21.2662H44.058C44.6702 21.268 45.2761 21.3904 45.841 21.6264C46.4059 21.8624 46.9188 22.2073 47.3504 22.6415C47.782 23.0757 48.1239 23.5907 48.3565 24.157C48.5891 24.7234 48.7078 25.3299 48.706 25.9422V33.2082C48.6839 34.4459 48.1719 35.6244 47.2822 36.4852C46.3925 37.346 45.1978 37.8189 43.96 37.8002ZM34.258 24.7802C33.2933 24.7422 32.3529 25.0875 31.642 25.7407C30.9311 26.3938 30.5076 27.3018 30.464 28.2662V30.8702C30.5076 31.8346 30.9311 32.7425 31.642 33.3957C32.3529 34.0488 33.2933 34.3941 34.258 34.3562H43.96C44.2657 34.3562 44.5592 34.2357 44.7767 34.0208C44.9942 33.8059 45.1183 33.5139 45.122 33.2082V25.9422C45.1136 25.6627 44.9983 25.3972 44.8 25.2002C44.695 25.0904 44.569 25.0029 44.4295 24.9428C44.29 24.8826 44.1399 24.8512 43.988 24.8502L34.258 24.7802Z" fill="#7B61FF"/>
<path d="M35.224 31.3179C36.1905 31.3179 36.974 30.5344 36.974 29.5679C36.974 28.6014 36.1905 27.8179 35.224 27.8179C34.2575 27.8179 33.474 28.6014 33.474 29.5679C33.474 30.5344 34.2575 31.3179 35.224 31.3179Z" fill="#7B61FF"/>
</svg>
